<svg width="600" height="400" viewBox="0 0 600 400" xmlns="http://www.w3.org/2000/svg">
  <rect x="150" y="100" width="300" height="200" stroke="black" stroke-width="8" fill="white" rx="10"/>

  <rect x="80" y="150" width="60" height="100" stroke="black" stroke-width="8" fill="white" rx="5"/>
  <line x1="95" y1="150" x2="95" y2="250" stroke="black" stroke-width="8" stroke-linecap="round"/>

  <rect x="460" y="150" width="60" height="100" stroke="black" stroke-width="8" fill="white" rx="5"/>
  <line x1="505" y1="150" x2="505" y2="250" stroke="black" stroke-width="8" stroke-linecap="round"/>

  <rect x="175" y="30" width="100" height="60" stroke="black" stroke-width="8" fill="white" rx="5"/>
  <line x1="175" y1="50" x2="275" y2="50" stroke="black" stroke-width="8" stroke-linecap="round"/>

  <rect x="325" y="30" width="100" height="60" stroke="black" stroke-width="8" fill="white" rx="5"/>
  <line x1="325" y1="50" x2="425" y2="50" stroke="black" stroke-width="8" stroke-linecap="round"/>

  <rect x="175" y="310" width="100" height="60" stroke="black" stroke-width="8" fill="white" rx="5"/>
  <line x1="175" y1="350" x2="275" y2="350" stroke="black" stroke-width="8" stroke-linecap="round"/>

  <rect x="325" y="310" width="100" height="60" stroke="black" stroke-width="8" fill="white" rx="5"/>
  <line x1="325" y1="350" x2="425" y2="350" stroke="black" stroke-width="8" stroke-linecap="round"/>
</svg>
