<svg width="300" height="400" viewBox="0 0 300 400" xmlns="http://www.w3.org/2000/svg">
  <rect x="75" y="30" width="150" height="80" rx="10" stroke="black" stroke-width="8" fill="white"/>

  <path d="M 75 110 C 75 110, 50 160, 50 210 C 50 310, 125 360, 150 360 C 175 360, 250 310, 250 210 C 250 160, 225 110, 225 110 Z" stroke="black" stroke-width="8" fill="white"/>

  <path d="M 100 150 C 100 150, 75 190, 75 220 C 75 300, 125 340, 150 340 C 175 340, 225 300, 225 220 C 225 190, 200 150, 200 150 Z" stroke="black" stroke-width="8" fill="none"/>

  <circle cx="150" cy="70" r="15" stroke="black" stroke-width="8" fill="none"/>
</svg>
